<?xml version="1.0" standalone="no"?><!DOCTYPE svg PUBLIC "-//W3C//DTD SVG 1.1//EN" "http://www.w3.org/Graphics/SVG/1.1/DTD/svg11.dtd"><svg viewBox="0 0 44.999 44.999" xmlns="http://www.w3.org/2000/svg" xmlns:xlink="http://www.w3.org/1999/xlink"><style>:root>svg{display:none}:root>svg:target{display:block}</style><svg fill="none" fill-rule="evenodd" stroke="#000" stroke-width=".501" stroke-linejoin="bevel" stroke-miterlimit="10" font-family="Times New Roman" font-size="16" style="font-variant-ligatures:none" overflow="visible" viewBox="1112.7 -1350.8 33.36 33.36" id="courses" xmlns="http://www.w3.org/2000/svg"><g transform="scale(1 -1)" stroke="#fff" stroke-width=".975" stroke-linecap="round"><circle transform="rotate(131.189 262.021 923.28)" stroke-linejoin="miter" r="16.201"/><path d="M1129.23 1326.45c-3.29 6.09-5.36 2.38-11.34.79v12.38c4.88 1.64 6.65 4.99 11.22.12 4.51 5.24 7.07.55 11.76-.12v-11.77c-5.79.61-8.65 4.57-11.64-1.4z" stroke-linejoin="miter"/><path d="M1129.17 1339.53v-12.39" stroke-linejoin="round"/></g></svg><svg fill="none" fill-rule="evenodd" stroke="#000" stroke-width=".501" stroke-linejoin="bevel" stroke-miterlimit="10" font-family="Times New Roman" font-size="16" style="font-variant-ligatures:none" overflow="visible" viewBox="1119.76 -1298.25 33.749 33.749" id="experience" xmlns="http://www.w3.org/2000/svg"><g stroke-linejoin="miter" stroke-linecap="round" stroke-width=".986" transform="scale(1 -1)"><circle transform="rotate(131.188 277.611 898.558)" stroke="#fff" r="16.39"/><g stroke="none" fill="#fff"><path d="M1139.75 1287.24l-9.67-9.67-1.98-4.44 4.74 1.98 9.57 9.47-2.66 2.66zM1143.2 1285.47l-2.66 2.46 1.28 1.68h1.87l1.49-1.77-1.98-2.37z"/></g></g></svg></svg>